# Blender 4.1.0
# www.blender.org
mtllib pikachu.mtl
o pikachu
v -0.214303 0.000000 0.145801
v -0.166651 0.000000 0.147494
v -0.055649 0.000000 0.046455
v -0.156231 0.000000 0.046978
v -0.160311 -0.000000 0.185747
v -0.116550 -0.000000 0.185139
v -0.110210 -0.000000 0.223392
v -0.030717 -0.000000 0.157877
v 0.008233 0.000000 -0.231137
v 0.109626 0.000000 0.038761
v -0.145911 0.050177 0.135599
v -0.114690 0.055647 0.163143
v -0.086054 0.060664 0.188406
v -0.178159 0.044539 0.107121
v -0.003690 0.131406 0.135152
v -0.108229 0.131879 0.000604
v -0.190510 0.263817 0.054704
v -0.041162 0.252952 0.235759
v -0.108559 0.267368 -0.375313
v 0.283116 0.280507 0.316507
v 0.283670 0.117425 0.172862
v 0.284240 0.000000 0.013348
v 0.193133 0.000000 -0.335382
v 0.286429 0.259871 -0.586227
v 0.285892 0.980386 -0.439287
v -0.044739 0.986586 -0.261890
v 0.285995 1.183630 -0.501721
v -0.091993 1.160056 -0.294380
v 0.285856 1.689555 -0.394952
v -0.043038 1.707349 -0.206464
v 0.253784 0.000000 -0.953183
v 0.211846 0.150368 -1.047603
v 0.159743 0.223582 -0.776070
v 0.238111 0.333927 -0.966801
v 0.186894 0.396334 -0.685642
v 0.221851 0.577744 -1.125200
v 0.157265 0.659383 -0.774224
v 0.245851 0.829993 -1.102869
v 0.160302 0.945002 -0.603248
v 0.233838 1.266675 -1.393944
v 0.142365 1.649120 -1.083056
v 0.286075 0.134383 -0.489447
v -0.125796 0.745432 0.002230
v -0.083402 0.978299 -0.086943
v -0.185102 0.826134 0.176338
v -0.183667 0.606530 0.156459
v 0.054384 0.683844 0.335836
v -0.015487 0.525661 0.273246
v 0.176765 0.660385 0.340693
v 0.172525 0.590169 0.316078
v 0.159404 0.547587 0.299813
v 0.147227 0.507801 0.284625
v 0.284041 1.813457 0.067905
v 0.010271 1.762214 0.029077
v 0.041794 1.236493 0.331745
v 0.282713 1.264537 0.431712
v 0.282865 1.103925 0.390145
v -0.011476 1.112991 0.282170
v 0.283463 0.965418 0.226153
v 0.073345 0.981327 0.161309
v 0.048414 1.439117 0.202998
v 0.141343 1.442068 0.246679
v 0.141906 1.353148 0.218581
v 0.048599 1.337845 0.170786
v 0.286709 0.402705 -0.687173
v 0.287111 0.217091 -0.773288
v 0.287136 0.659608 -0.780085
v 0.286362 0.942101 -0.600077
v 0.288240 1.649518 -1.082468
v 0.188857 0.561579 0.307878
v 0.199410 0.619435 0.329190
v 0.174447 0.531668 0.295891
v -0.031035 0.826255 0.136302
v 0.041759 0.783819 0.181389
v -0.015682 0.469888 0.210682
v -0.103139 0.506114 0.094695
v 0.189073 0.732219 0.229669
v 0.143481 0.470937 0.253429
v 0.231787 0.620722 0.257144
v 0.211911 0.533367 0.263796
v 0.207367 0.596061 0.253777
v 0.227857 0.568326 0.263362
v 0.196152 0.550288 0.257039
v 0.283342 0.708041 0.259454
v 0.283294 0.612719 0.272667
v 0.283246 0.518355 0.285747
v 0.283213 0.454256 0.294632
v 0.283282 0.589126 0.275937
v 0.283268 0.561313 0.279792
v 0.283260 0.546003 0.281915
v 0.287770 0.000000 -0.953742
v 0.288126 0.155146 -1.051201
v -0.089243 1.905147 -0.003396
v -0.111864 1.820991 -0.243771
v -0.203131 1.690295 -0.219801
v -0.213823 1.692918 0.016322
v -0.102734 1.574019 0.051072
v -0.069709 1.538077 -0.166074
v -0.158428 1.122599 0.066208
v -0.144575 1.233343 0.061387
v 0.004417 1.583245 0.203933
v 0.283172 1.583953 0.306087
v 0.282970 1.305123 0.361385
v -0.001819 1.256207 0.265223
v -0.226736 2.068779 -0.063440
v -0.265167 2.039279 -0.222863
v -0.321872 1.890845 -0.209785
v -0.329174 1.891491 -0.041344
v -0.347407 2.156452 -0.122470
v -0.366879 2.156452 -0.176827
v -0.395731 2.156452 -0.166919
v -0.395806 2.156452 -0.135967
v 0.010955 1.513656 0.219254
v 0.008520 1.323896 0.256563
v 0.155991 1.342741 0.306468
v 0.150655 1.508665 0.270765
v 0.287738 0.335684 -0.968948
v 0.288397 0.576524 -1.125589
v 0.288196 0.831143 -1.102497
v 0.289377 1.266483 -1.394105
v 0.781803 -0.000000 0.149436
v 0.724454 0.000000 0.050192
v 0.623879 0.000000 0.048935
v 0.734140 -0.000000 0.150782
v 0.727521 0.000000 0.188987
v 0.683766 0.000000 0.188060
v 0.598134 0.000000 0.160172
v 0.677146 0.000000 0.226266
v 0.562024 0.000000 -0.229115
v 0.458649 0.000000 0.039947
v 0.682066 0.055647 0.166051
v 0.713489 0.050180 0.138737
v 0.653245 0.060661 0.191103
v 0.745946 0.044546 0.110496
v 0.571276 0.131421 0.137243
v 0.676805 0.131893 0.003499
v 0.608021 0.252893 0.238194
v 0.758676 0.263817 0.058168
v 0.679866 0.267368 -0.372436
v 0.377890 0.000000 -0.334708
v 0.616499 0.986205 -0.259773
v 0.660934 1.160439 -0.291522
v 0.609858 1.696167 -0.205041
v 0.414496 0.223582 -0.775140
v 0.364377 0.150368 -1.047047
v 0.321751 0.000000 -0.952935
v 0.386511 0.396334 -0.684913
v 0.337347 0.333927 -0.966439
v 0.416961 0.659383 -0.773276
v 0.354939 0.577744 -1.124715
v 0.412442 0.945002 -0.602328
v 0.330542 0.829993 -1.102560
v 0.436844 1.649120 -1.081971
v 0.344914 1.266675 -1.393539
v 0.694347 0.745432 0.005224
v 0.651326 0.978680 -0.083965
v 0.751090 0.606530 0.159870
v 0.752380 0.826134 0.179760
v 0.582062 0.525661 0.275427
v 0.511736 0.683844 0.337506
v 0.419269 0.507801 0.285618
v 0.406982 0.547587 0.300717
v 0.393743 0.590169 0.316886
v 0.389323 0.660385 0.341468
v 0.548791 1.764410 0.022882
v 0.523567 1.236378 0.332941
v 0.576965 1.112835 0.283597
v 0.494050 0.981327 0.162845
v 0.518676 1.439117 0.204714
v 0.518726 1.337845 0.172502
v 0.425073 1.353148 0.219614
v 0.425430 1.442068 0.247716
v 0.377471 0.561579 0.308566
v 0.366763 0.619435 0.329800
v 0.391968 0.531668 0.296685
v 0.525488 0.783819 0.183155
v 0.598610 0.826255 0.138600
v 0.671015 0.506114 0.097521
v 0.582714 0.469888 0.212866
v 0.377825 0.732219 0.230358
v 0.423243 0.470937 0.254451
v 0.334912 0.620722 0.257520
v 0.354739 0.533367 0.264317
v 0.359356 0.596061 0.254332
v 0.370548 0.550288 0.257676
v 0.338796 0.568326 0.263767
v 0.595672 1.827041 -0.240902
v 0.538593 1.882112 0.003340
v 0.724286 1.774841 -0.219135
v 0.635620 1.534683 -0.159684
v 0.671091 1.578604 0.058072
v 0.741463 1.775241 0.016983
v 0.728920 1.122357 0.069991
v 0.716754 1.233828 0.064345
v 0.563693 1.583396 0.206708
v 0.568028 1.256145 0.267000
v 0.622608 2.124885 -0.221343
v 0.580502 2.132111 -0.058784
v 0.746049 2.008379 -0.039452
v 0.735726 2.005287 -0.206257
v 0.674444 2.277526 -0.173319
v 0.661376 2.280509 -0.121447
v 0.706955 2.276197 -0.127529
v 0.702924 2.276922 -0.163673
v 0.558178 1.323896 0.258569
v 0.556015 1.513656 0.221243
v 0.415943 1.508665 0.271733
v 0.410346 1.342741 0.307396
vn 0.8334 0.3075 -0.4592
vn 0.3778 0.7791 -0.5002
vn -0.0000 1.0000 -0.0000
vn 0.6705 0.6435 0.3692
vn 0.6054 0.3644 -0.7076
vn 0.4091 0.8232 -0.3937
vn 0.3116 0.3874 -0.8676
vn -0.4392 0.6841 -0.5824
vn 0.4566 0.8252 0.3324
vn -0.0634 0.9274 -0.3687
vn 0.5144 -0.7278 -0.4536
vn 0.5270 -0.6922 -0.4931
vn 0.0437 -0.5808 -0.8129
vn 0.7882 -0.6149 0.0272
vn 0.2224 0.3189 -0.9213
vn 0.9890 0.1444 0.0307
vn 0.9425 0.2040 -0.2647
vn 0.5048 0.2695 -0.8201
vn 0.7771 0.1913 0.5996
vn 0.0036 0.2554 -0.9668
vn 0.0025 0.7002 -0.7139
vn 0.0010 0.9585 -0.2850
vn 0.2932 0.9176 0.2683
vn -0.0036 0.2057 0.9786
vn -0.0027 0.0494 0.9988
vn 0.7979 0.0900 0.5960
vn -0.0037 0.0362 0.9993
vn 0.7996 0.0673 0.5968
vn -0.0097 -0.6078 0.7941
vn -0.0785 -0.4475 0.8908
vn 0.4711 0.7840 0.4043
vn 0.6180 0.1043 0.7792
vn 0.9666 -0.1209 -0.2259
vn 0.7382 -0.0165 0.6743
vn 0.6419 0.0784 -0.7627
vn 0.6045 0.1805 0.7759
vn 0.8762 0.0790 -0.4754
vn 0.7016 0.1409 0.6985
vn 0.6553 -0.0215 -0.7551
vn 0.5345 -0.0068 0.8451
vn 0.6212 -0.7836 -0.0102
vn -0.0029 -0.6029 0.7978
vn 0.9661 -0.0462 0.2541
vn 0.9958 0.0898 0.0174
vn 0.7364 -0.5227 -0.4295
vn 0.9359 0.3043 -0.1773
vn 0.1533 -0.3182 -0.9355
vn 0.4175 0.4445 -0.7925
vn -0.3730 -0.3049 -0.8763
vn -0.2583 0.3648 -0.8945
vn -0.1011 0.3641 -0.9258
vn -0.1134 0.5599 -0.8207
vn -0.0092 -0.9588 -0.2839
vn 0.0592 -0.8590 -0.5085
vn 0.5155 -0.3557 -0.7796
vn 0.0020 -0.3727 -0.9279
vn 0.0019 0.5061 -0.8625
vn 0.6204 0.3808 -0.6856
vn 0.0030 0.3731 -0.9278
vn 0.5442 0.3356 -0.7689
vn -0.1240 0.1878 -0.9743
vn 0.3326 0.2933 -0.8963
vn 0.6947 -0.4143 -0.5880
vn -0.2326 -0.4512 -0.8616
vn 0.0036 0.0448 -0.9990
vn 0.0033 -0.4371 -0.8994
vn 0.0036 0.1157 -0.9933
vn 0.0037 -0.0184 -0.9998
vn 0.0002 -0.9991 -0.0425
vn -0.5417 0.3935 -0.7428
vn -0.6198 0.2416 -0.7467
vn -0.4773 0.1878 -0.8585
vn 0.1959 -0.6980 -0.6888
vn 0.0890 -0.5821 -0.8083
vn 0.5712 0.2934 -0.7666
vn 0.8854 0.1410 -0.4429
vn 0.0208 -0.4324 -0.9015
vn 0.1471 0.2103 -0.9665
vn -0.2077 -0.0574 -0.9765
vn 0.0331 -0.1316 -0.9908
vn -0.5048 0.0732 -0.8601
vn 0.0083 -0.1066 -0.9943
vn -0.4337 0.1421 -0.8898
vn 0.0036 -0.1368 -0.9906
vn 0.0036 -0.1375 -0.9905
vn 0.0036 -0.1374 -0.9905
vn 0.0036 -0.1305 -0.9914
vn -0.0018 0.8732 0.4874
vn -0.0037 0.0488 0.9988
vn -0.5555 -0.5876 -0.5883
vn -0.4775 -0.2392 0.8455
vn 0.5291 0.4998 0.6857
vn 0.6733 0.3292 -0.6620
vn 0.8926 -0.0317 -0.4498
vn 0.9545 0.1254 0.2705
vn 0.9354 0.2551 -0.2449
vn 0.9694 -0.1280 -0.2097
vn 0.5519 -0.3937 -0.7352
vn 0.0017 -0.4492 -0.8934
vn 0.0022 -0.5983 -0.8013
vn 0.6992 -0.2339 -0.6756
vn -0.4340 -0.7193 -0.5424
vn -0.2922 -0.4391 0.8496
vn 0.7194 0.2681 0.6407
vn 0.7726 0.1421 -0.6188
vn -0.2008 -0.8517 -0.4841
vn -0.0794 -0.7444 0.6631
vn 0.7323 -0.5377 0.4179
vn 0.7301 -0.5648 -0.3846
vn 0.2077 -0.0923 -0.9738
vn 0.1705 -0.3882 -0.9056
vn 0.5141 -0.3403 -0.7873
vn 0.4185 -0.0634 -0.9060
vn -0.0036 0.0868 0.9962
vn -0.0035 0.2446 0.9696
vn -0.0035 0.2511 0.9679
vn -0.0036 -0.0450 0.9990
vn -0.8300 0.3076 -0.4653
vn -0.6731 0.6435 0.3643
vn -0.3741 0.7792 -0.5029
vn -0.6002 0.3644 -0.7120
vn -0.4062 0.8232 -0.3967
vn 0.4436 0.6840 -0.5791
vn -0.3053 0.3874 -0.8699
vn -0.4591 0.8252 0.3291
vn 0.0661 0.9275 -0.3680
vn -0.5233 -0.6922 -0.4970
vn -0.5111 -0.7277 -0.4574
vn -0.0377 -0.5807 -0.8132
vn -0.7884 -0.6148 0.0214
vn -0.2156 0.3192 -0.9229
vn -0.9893 0.1443 0.0234
vn -0.4987 0.2697 -0.8237
vn -0.9405 0.2043 -0.2717
vn -0.7812 0.1918 0.5941
vn -0.2952 0.9176 0.2662
vn -0.8075 0.0811 0.5843
vn -0.8029 0.0614 0.5929
vn -0.0281 -0.2032 0.9787
vn -0.9649 -0.1215 -0.2327
vn -0.6238 0.1042 0.7746
vn -0.4740 0.7840 0.4009
vn -0.6362 0.0784 -0.7676
vn -0.7429 -0.0167 0.6692
vn -0.8729 0.0787 -0.4816
vn -0.6103 0.1804 0.7714
vn -0.6494 -0.0211 -0.7601
vn -0.7065 0.1408 0.6936
vn -0.6235 -0.7817 -0.0144
vn -0.5397 -0.0059 0.8419
vn -0.9684 -0.0485 0.2445
vn -0.9960 0.0890 0.0074
vn -0.9346 0.3043 -0.1842
vn -0.7335 -0.5228 -0.4343
vn -0.4117 0.4445 -0.7956
vn -0.1464 -0.3182 -0.9366
vn 0.1194 0.5599 -0.8199
vn 0.1078 0.3641 -0.9251
vn 0.2649 0.3648 -0.8926
vn 0.3794 -0.3049 -0.8735
vn 0.0823 -0.7616 -0.6428
vn -0.5104 -0.3531 -0.7841
vn -0.6108 0.3818 -0.6936
vn -0.5376 0.3354 -0.7736
vn 0.1311 0.1878 -0.9734
vn 0.2389 -0.4512 -0.8599
vn -0.6904 -0.4143 -0.5930
vn -0.3261 0.2933 -0.8987
vn 0.5471 0.3935 -0.7388
vn 0.6252 0.2416 -0.7421
vn 0.4835 0.1878 -0.8550
vn -0.0831 -0.5821 -0.8089
vn -0.1903 -0.6981 -0.6903
vn -0.8822 0.1410 -0.4494
vn -0.5656 0.2933 -0.7708
vn -0.0142 -0.4324 -0.9016
vn -0.1400 0.2103 -0.9676
vn 0.2149 -0.0574 -0.9750
vn -0.0258 -0.1316 -0.9910
vn 0.5111 0.0732 -0.8564
vn 0.4402 0.1421 -0.8866
vn -0.0010 -0.1066 -0.9943
vn 0.5622 0.0702 0.8240
vn 0.7835 -0.1576 -0.6011
vn -0.7022 0.2081 0.6809
vn -0.9756 0.0217 0.2183
vn -0.9175 -0.1269 -0.3769
vn -0.7671 0.0200 -0.6412
vn -0.9311 0.2643 -0.2515
vn -0.9689 -0.1258 -0.2133
vn -0.5390 -0.4046 -0.7388
vn -0.6897 -0.2283 -0.6871
vn 0.4795 -0.2632 0.8372
vn 0.7132 -0.4154 -0.5645
vn -0.7574 -0.1998 -0.6216
vn -0.7599 -0.0708 0.6462
vn 0.2656 -0.7108 0.6513
vn 0.4293 -0.8005 -0.4182
vn -0.6343 -0.6603 -0.4020
vn -0.6002 -0.6569 0.4563
vn -0.1705 -0.3846 -0.9072
vn -0.1476 -0.0891 -0.9850
vn -0.4108 -0.0602 -0.9097
vn -0.5084 -0.3403 -0.7910
s 1
f 1//1 2//2 3//3
f 3//3 4//4 1//1
f 2//2 5//5 3//3
f 5//5 6//6 3//3
f 6//6 7//7 8//8
f 8//8 3//3 6//6
f 4//4 3//3 9//9
f 9//9 3//3 10//10
f 3//3 8//8 10//10
f 5//5 2//2 11//11
f 11//11 12//12 5//5
f 6//6 5//5 12//12
f 7//7 6//6 12//12
f 12//12 13//13 7//7
f 2//2 1//1 11//11
f 11//11 1//1 14//14
f 8//8 7//7 13//13
f 13//13 15//15 8//8
f 10//10 8//8 15//15
f 4//4 9//9 16//16
f 4//4 16//16 14//14
f 14//14 1//1 4//4
f 12//12 11//11 16//16
f 13//13 12//12 16//16
f 11//11 14//14 16//16
f 15//15 13//13 16//16
f 15//15 16//16 17//17
f 17//17 18//18 15//15
f 16//16 9//9 19//19
f 19//19 17//17 16//16
f 15//15 18//18 20//20
f 20//20 21//21 15//15
f 21//21 10//10 15//15
f 10//10 21//21 22//22
f 19//19 9//9 23//23
f 23//23 24//24 19//19
f 25//25 26//26 19//19
f 19//19 24//24 25//25
f 26//26 25//25 27//27
f 27//27 28//28 26//26
f 28//28 27//27 29//29
f 29//29 30//30 28//28
f 23//23 31//31 32//32
f 32//32 33//33 23//23
f 33//33 32//32 34//34
f 34//34 35//35 33//33
f 35//35 34//34 36//36
f 36//36 37//37 35//35
f 37//37 36//36 38//38
f 38//38 39//39 37//37
f 39//39 38//38 40//40
f 40//40 41//41 39//39
f 24//24 23//23 42//42
f 23//23 33//33 42//42
f 26//26 43//43 17//17
f 17//17 19//19 26//26
f 26//26 44//44 43//43
f 43//43 44//44 45//45
f 45//45 46//46 43//43
f 46//46 45//45 47//47
f 47//47 48//48 46//46
f 48//48 47//47 49//49
f 48//48 49//49 50//50
f 48//48 50//50 51//51
f 48//48 51//51 52//52
f 30//30 29//29 53//53
f 53//53 54//54 30//30
f 55//55 56//56 57//57
f 57//57 58//58 55//55
f 58//58 57//57 59//59
f 59//59 60//60 58//58
f 61//61 62//62 63//63
f 63//63 64//64 61//61
f 33//33 35//35 65//65
f 65//65 66//66 33//33
f 67//67 65//65 35//35
f 35//35 37//37 67//67
f 37//37 39//39 68//68
f 68//68 67//67 37//37
f 39//39 41//41 69//69
f 69//69 68//68 39//39
f 33//33 66//66 42//42
f 50//50 70//70 51//51
f 50//50 49//49 71//71
f 51//51 72//72 52//52
f 47//47 45//45 73//73
f 73//73 74//74 47//47
f 46//46 48//48 75//75
f 75//75 76//76 46//46
f 49//49 47//47 74//74
f 74//74 77//77 49//49
f 48//48 52//52 78//78
f 78//78 75//75 48//48
f 71//71 49//49 77//77
f 77//77 79//79 71//71
f 52//52 72//72 80//80
f 80//80 78//78 52//52
f 50//50 71//71 79//79
f 79//79 81//81 50//50
f 51//51 70//70 82//82
f 82//82 83//83 51//51
f 72//72 51//51 83//83
f 83//83 80//80 72//72
f 70//70 50//50 81//81
f 81//81 82//82 70//70
f 45//45 44//44 73//73
f 46//46 76//76 43//43
f 79//79 77//77 84//84
f 84//84 85//85 79//79
f 78//78 80//80 86//86
f 86//86 87//87 78//78
f 81//81 79//79 85//85
f 85//85 88//86 81//81
f 83//83 82//82 89//86
f 89//86 90//86 83//83
f 80//80 83//83 90//86
f 90//86 86//86 80//80
f 82//82 81//81 88//86
f 88//86 89//86 82//82
f 78//78 87//87 20//20
f 18//18 75//75 78//78
f 78//78 20//20 18//18
f 77//77 74//74 60//60
f 84//84 77//77 60//60
f 60//60 59//59 84//84
f 76//76 75//75 18//18
f 18//18 17//17 76//76
f 43//43 76//76 17//17
f 60//60 74//74 73//73
f 73//73 44//44 60//60
f 22//22 23//23 9//9
f 9//9 10//10 22//22
f 32//32 31//31 91//88
f 91//88 92//89 32//32
f 30//30 54//54 93//90
f 93//90 94//91 30//30
f 95//92 96//93 97//94
f 97//94 98//95 95//92
f 30//30 94//91 95//92
f 95//92 98//95 30//30
f 96//93 93//90 54//54
f 54//54 97//94 96//93
f 60//60 44//44 99//96
f 99//96 58//58 60//60
f 100//97 28//28 98//95
f 98//95 97//94 100//97
f 98//95 28//28 30//30
f 101//98 97//94 54//54
f 28//28 99//96 44//44
f 44//44 26//26 28//28
f 99//96 28//28 100//97
f 54//54 53//53 102//99
f 102//99 101//98 54//54
f 103//100 56//56 55//55
f 55//55 104//101 103//100
f 97//94 101//98 104//101
f 104//101 100//97 97//94
f 94//91 93//90 105//102
f 105//102 106//103 94//91
f 96//93 95//92 107//104
f 107//104 108//105 96//93
f 93//90 96//93 108//105
f 108//105 105//102 93//90
f 95//92 94//91 106//103
f 106//103 107//104 95//92
f 105//102 109//106 110//107
f 110//107 106//103 105//102
f 107//104 111//108 112//109
f 112//109 108//105 107//104
f 108//105 112//109 109//106
f 109//106 105//102 108//105
f 106//103 110//107 111//108
f 111//108 107//104 106//103
f 101//98 113//110 114//111
f 114//111 104//101 101//98
f 103//100 115//112 116//113
f 116//113 102//99 103//100
f 101//98 102//99 116//113
f 116//113 113//110 101//98
f 103//100 104//101 114//111
f 114//111 115//112 103//100
f 114//111 113//110 61//61
f 61//61 64//64 114//111
f 113//110 116//113 62//62
f 62//62 61//61 113//110
f 116//113 115//112 63//63
f 63//63 62//62 116//113
f 115//112 114//111 64//64
f 64//64 63//63 115//112
f 36//36 34//34 117//114
f 117//114 118//115 36//36
f 38//38 36//36 118//115
f 118//115 119//116 38//38
f 40//40 38//38 119//116
f 119//116 120//117 40//40
f 69//69 41//41 40//40
f 40//40 120//117 69//69
f 34//34 32//32 92//89
f 92//89 117//114 34//34
f 91//88 31//31 23//23
f 23//23 22//22 91//88
f 58//58 99//96 104//101
f 104//101 55//55 58//58
f 100//97 104//101 99//96
f 111//108 110//107 109//106
f 109//106 112//109 111//108
f 121//118 122//119 123//3
f 123//3 124//120 121//118
f 124//120 123//3 125//121
f 125//121 123//3 126//122
f 126//122 123//3 127//123
f 127//123 128//124 126//122
f 122//119 129//125 123//3
f 129//125 130//126 123//3
f 123//3 130//126 127//123
f 125//121 131//127 132//128
f 132//128 124//120 125//121
f 126//122 131//127 125//121
f 128//124 133//129 131//127
f 131//127 126//122 128//124
f 124//120 132//128 121//118
f 132//128 134//130 121//118
f 127//123 135//131 133//129
f 133//129 128//124 127//123
f 130//126 135//131 127//123
f 122//119 136//132 129//125
f 122//119 121//118 134//130
f 134//130 136//132 122//119
f 131//127 136//132 132//128
f 133//129 136//132 131//127
f 132//128 136//132 134//130
f 135//131 136//132 133//129
f 135//131 137//133 138//134
f 138//134 136//132 135//131
f 136//132 138//134 139//135
f 139//135 129//125 136//132
f 135//131 21//21 20//20
f 20//20 137//133 135//131
f 21//21 135//131 130//126
f 130//126 22//22 21//21
f 139//135 24//24 140//136
f 140//136 129//125 139//135
f 25//25 24//24 139//135
f 139//135 141//137 25//25
f 141//137 142//138 27//27
f 27//27 25//25 141//137
f 142//138 143//139 29//29
f 29//29 27//27 142//138
f 140//136 144//140 145//141
f 145//141 146//142 140//136
f 144//140 147//143 148//144
f 148//144 145//141 144//140
f 147//143 149//145 150//146
f 150//146 148//144 147//143
f 149//145 151//147 152//148
f 152//148 150//146 149//145
f 151//147 153//149 154//150
f 154//150 152//148 151//147
f 24//24 42//42 140//136
f 140//136 42//42 144//140
f 141//137 139//135 138//134
f 138//134 155//151 141//137
f 141//137 155//151 156//152
f 155//151 157//153 158//154
f 158//154 156//152 155//151
f 157//153 159//155 160//156
f 160//156 158//154 157//153
f 159//155 161//157 162//158
f 159//155 162//158 163//159
f 159//155 163//159 164//160
f 159//155 164//160 160//156
f 143//139 165//161 53//53
f 53//53 29//29 143//139
f 166//162 167//163 57//57
f 57//57 56//56 166//162
f 167//163 168//164 59//59
f 59//59 57//57 167//163
f 169//165 170//166 171//167
f 171//167 172//168 169//165
f 144//140 66//66 65//65
f 65//65 147//143 144//140
f 67//67 149//145 147//143
f 147//143 65//65 67//67
f 149//145 67//67 68//68
f 68//68 151//147 149//145
f 151//147 68//68 69//69
f 69//69 153//149 151//147
f 144//140 42//42 66//66
f 163//159 162//158 173//169
f 163//159 174//170 164//160
f 162//158 161//157 175//171
f 160//156 176//172 177//173
f 177//173 158//154 160//156
f 157//153 178//174 179//175
f 179//175 159//155 157//153
f 164//160 180//176 176//172
f 176//172 160//156 164//160
f 159//155 179//175 181//177
f 181//177 161//157 159//155
f 174//170 182//178 180//176
f 180//176 164//160 174//170
f 161//157 181//177 183//179
f 183//179 175//171 161//157
f 163//159 184//180 182//178
f 182//178 174//170 163//159
f 162//158 185//181 186//182
f 186//182 173//169 162//158
f 175//171 183//179 185//181
f 185//181 162//158 175//171
f 173//169 186//182 184//180
f 184//180 163//159 173//169
f 158//154 177//173 156//152
f 157//153 155//151 178//174
f 182//178 85//85 84//84
f 84//84 180//176 182//178
f 181//177 87//87 86//86
f 86//86 183//179 181//177
f 184//180 88//86 85//85
f 85//85 182//178 184//180
f 185//181 90//86 89//86
f 89//86 186//182 185//181
f 183//179 86//86 90//86
f 90//86 185//181 183//179
f 186//182 89//86 88//86
f 88//86 184//180 186//182
f 181//177 20//20 87//87
f 137//133 20//20 181//177
f 181//177 179//175 137//133
f 180//176 168//164 176//172
f 84//84 59//59 168//164
f 168//164 180//176 84//84
f 178//174 138//134 137//133
f 137//133 179//175 178//174
f 155//151 138//134 178//174
f 168//164 156//152 177//173
f 177//173 176//172 168//164
f 22//22 130//126 129//125
f 129//125 140//136 22//22
f 145//141 92//89 91//88
f 91//88 146//142 145//141
f 143//139 187//183 188//184
f 188//184 165//161 143//139
f 189//185 190//186 191//187
f 191//187 192//188 189//185
f 143//139 190//186 189//185
f 189//185 187//183 143//139
f 192//188 191//187 165//161
f 165//161 188//184 192//188
f 168//164 167//163 193//189
f 193//189 156//152 168//164
f 194//190 191//187 190//186
f 190//186 142//138 194//190
f 190//186 143//139 142//138
f 195//191 165//161 191//187
f 142//138 141//137 156//152
f 156//152 193//189 142//138
f 193//189 194//190 142//138
f 165//161 195//191 102//99
f 102//99 53//53 165//161
f 103//100 196//192 166//162
f 166//162 56//56 103//100
f 191//187 194//190 196//192
f 196//192 195//191 191//187
f 187//183 197//193 198//194
f 198//194 188//184 187//183
f 192//188 199//195 200//196
f 200//196 189//185 192//188
f 188//184 198//194 199//195
f 199//195 192//188 188//184
f 189//185 200//196 197//193
f 197//193 187//183 189//185
f 198//194 197//193 201//197
f 201//197 202//198 198//194
f 200//196 199//195 203//199
f 203//199 204//200 200//196
f 199//195 198//194 202//198
f 202//198 203//199 199//195
f 197//193 200//196 204//200
f 204//200 201//197 197//193
f 195//191 196//192 205//201
f 205//201 206//202 195//191
f 103//100 102//99 207//203
f 207//203 208//204 103//100
f 195//191 206//202 207//203
f 207//203 102//99 195//191
f 103//100 208//204 205//201
f 205//201 196//192 103//100
f 205//201 170//166 169//165
f 169//165 206//202 205//201
f 206//202 169//165 172//168
f 172//168 207//203 206//202
f 207//203 172//168 171//167
f 171//167 208//204 207//203
f 208//204 171//167 170//166
f 170//166 205//201 208//204
f 150//146 118//115 117//114
f 117//114 148//144 150//146
f 152//148 119//116 118//115
f 118//115 150//146 152//148
f 154//150 120//117 119//116
f 119//116 152//148 154//150
f 69//69 120//117 154//150
f 154//150 153//149 69//69
f 148//144 117//114 92//89
f 92//89 145//141 148//144
f 91//88 22//22 140//136
f 140//136 146//142 91//88
f 167//163 166//162 196//192
f 196//192 193//189 167//163
f 194//190 193//189 196//192
f 204//200 203//199 202//198
f 202//198 201//197 204//200
